<svg width="338" height="320" viewBox="0 0 338 320" fill="none" xmlns="http://www.w3.org/2000/svg">
<path d="M0 12.8C0 8.31958 0 6.07937 0.871948 4.36808C1.63893 2.86278 2.86278 1.63893 4.36808 0.871948C6.07937 0 8.31958 0 12.8 0H325.2C329.68 0 331.921 0 333.632 0.871948C335.137 1.63893 336.361 2.86278 337.128 4.36808C338 6.07937 338 8.31958 338 12.8V240C338 268.003 338 282.004 332.55 292.7C327.757 302.108 320.108 309.757 310.7 314.55C300.004 320 286.003 320 258 320H12.8C8.31958 320 6.07937 320 4.36808 319.128C2.86278 318.361 1.63893 317.137 0.871948 315.632C0 313.921 0 311.68 0 307.2V12.8Z" fill="#E7F3ED"/>
</svg>
